<svg xmlns="http://www.w3.org/2000/svg" viewBox="0 0 497.63 105.13"><defs><style>.cls-1{font-size:72px;font-family:MyriadPro-Regular, Myriad Pro;letter-spacing:0.2em;}.cls-1,.cls-6{fill:#1d1d1b;}.cls-2{letter-spacing:0.13em;}.cls-3{letter-spacing:0.2em;}.cls-4{letter-spacing:0.18em;}.cls-5{letter-spacing:0.2em;}</style></defs><g id="Vrstva_2" data-name="Vrstva 2"><g id="Vrstva_1-2" data-name="Vrstva 1"><text class="cls-1" transform="translate(19.28 60.26)">S<tspan class="cls-2" x="49.9" y="0">T</tspan><tspan class="cls-3" x="94.68" y="0">AN</tspan><tspan class="cls-4" x="214.92" y="0">K</tspan><tspan class="cls-5" x="267.12" y="0">OVIČ</tspan></text><path class="cls-6" d="M178.43,81c-2.31.26-3.06.64-3.17,2.38,0,1.21-.11,2.8-.11,6.32v15.19h-1.37l-15.4-19.8v9.46c0,3.41.11,5.11.18,6.21.07,1.93,1,2.5,3.56,2.72v1.06h-8.75V103.5c2.24-.18,3.1-.75,3.24-2.61.11-1.21.18-2.91.18-6.36V84.88a3.41,3.41,0,0,0-.72-2.5c-.68-.95-1.44-1.17-3.2-1.36V80h5.4l15.26,19V89.72c0-3.52-.07-5.14-.18-6.28-.11-1.7-.93-2.23-3.81-2.42V80h8.89Z" transform="translate(-2.37)"/><path class="cls-6" d="M188.51,104.56V103.5c3-.34,3.24-.49,3.24-3.71v-15c0-3.26-.29-3.41-3.24-3.75V80h9.65V81c-3,.34-3.28.49-3.28,3.75v15c0,3.26.29,3.37,3.28,3.71v1.06Z" transform="translate(-2.37)"/><path class="cls-6" d="M209,80h9.61V81c-2.8.26-3.31.53-3.31,3.9v6.51a5,5,0,0,0,2.59-1.74c2-2,4.43-4.58,6.09-6.55,1.08-1.29,1-1.78-.58-2l-1-.11V80h8.75V81c-2.7.34-3.64.53-6,3.14-1.08,1.1-3.89,4-6.19,6.36,2.74,3.41,6.73,8.25,8.6,10.33s2.31,2.39,4.54,2.65v1.06h-5.76c-2.77-3.29-5.69-7-9-11-.83-1.06-1.44-1.14-2-1.1v7.19c0,3.29.33,3.56,3.31,3.82v1.06H209V103.5c2.95-.26,3.24-.53,3.24-3.82V84.92c0-3.41-.25-3.68-3.24-3.9Z" transform="translate(-2.37)"/><path class="cls-6" d="M251.9,79.43c6.16,0,11.67,5,11.67,12.49,0,8.14-5.26,13.21-11.88,13.21-6.91,0-11.95-5.52-11.95-12.64C239.74,85.71,244.31,79.43,251.9,79.43Zm-.72,1.4c-4,0-7.7,3.56-7.7,10.64s3.67,12.22,8.78,12.22c4.36,0,7.63-3.4,7.63-10.71C259.89,85,255.9,80.83,251.18,80.83Z" transform="translate(-2.37)"/><path class="cls-6" d="M292.33,98.28c-.22,1.17-1.3,5.11-1.66,6.28H273.94V103.5c3.27-.34,3.56-.53,3.56-3.74v-15c0-3.22-.36-3.41-3.24-3.71V80h9.65V81c-2.88.3-3.28.45-3.28,3.71v15.4c0,2.31.29,2.84,2.34,2.88l2.84,0c1.84,0,2.38-.23,3.21-1.17a13,13,0,0,0,2.19-3.9Z" transform="translate(-2.37)"/><path class="cls-6" d="M316.27,104.56V103.5c2.34-.3,2.63-.68,2.12-2.12s-1.18-3.36-1.94-5.75h-7.78c-.57,1.7-1.11,3.18-1.62,4.73-.79,2.46-.28,2.77,2.67,3.14v1.06H301.4V103.5c2.27-.3,2.85-.56,4.11-4L313,79.65l1.15-.22c2.27,6.47,4.75,13.63,7,20.18,1.15,3.29,1.48,3.59,4,3.89v1.06Zm-3.6-20.17c-1.15,3.25-2.38,6.7-3.46,9.69H316Z" transform="translate(-2.37)"/><path class="cls-6" d="M346.87,85.71c-.61-2.5-1.62-5-5-5-2.81,0-3.78,2.16-3.78,4.13,0,2.61,1.58,3.94,4.57,5.56,4.32,2.35,6.19,4.09,6.19,7.69,0,4-3.28,7-7.92,7a14.35,14.35,0,0,1-5.51-1.25,52.89,52.89,0,0,1-1-5.68l1.12-.3c.72,2.54,2.3,5.83,6,5.83a4.06,4.06,0,0,0,4.18-4.35c0-2.92-1.48-4.09-4.64-5.91-3.78-2.16-5.91-4-5.91-7.49s2.67-6.55,7.42-6.55a22.17,22.17,0,0,1,4.75.72c.14,1.36.29,2.87.58,5.33Z" transform="translate(-2.37)"/></g></g></svg>